HIERARCHY
ROOT Pelvis
{
	OFFSET 0.000000 0.000000 0.000000
	CHANNELS 6 Xposition Yposition Zposition Xrotation Yrotation Zrotation
	JOINT LeftUpLeg_virtual
	{
		OFFSET 0.000000 0.000000 0.000000
		CHANNELS 3 Xrotation Yrotation Zrotation
		JOINT LeftUpLeg
		{
			OFFSET 18.735201 -5.666702 -4.541200
			CHANNELS 3 Xrotation Yrotation Zrotation
			JOINT LeftLeg
			{
				OFFSET -0.021200 -31.938179 0.493100
				CHANNELS 3 Xrotation Yrotation Zrotation
				JOINT LeftFoot
				{
					OFFSET 0.021200 -31.938179 -4.336299
					CHANNELS 3 Xrotation Yrotation Zrotation
					JOINT LeftToeBase
					{
						OFFSET 0.943001 -26.722000 15.023500
						CHANNELS 3 Xrotation Yrotation Zrotation
						End Site
						{
							OFFSET 0 0 0
						}
					}
				}
			}
		}
	}
	JOINT RightUpLeg_virtual
	{
		OFFSET 0.000000 0.000000 0.000000
		CHANNELS 3 Xrotation Yrotation Zrotation
		JOINT RightUpLeg
		{
			OFFSET -18.735201 -5.666702 -4.541200
			CHANNELS 3 Xrotation Yrotation Zrotation
			JOINT RightLeg
			{
				OFFSET 0.018946 -31.938133 0.493100
				CHANNELS 3 Xrotation Yrotation Zrotation
				JOINT RightFoot
				{
					OFFSET -0.018946 -31.938126 -4.336299
					CHANNELS 3 Xrotation Yrotation Zrotation
					JOINT RightToeBase
					{
						OFFSET -0.943001 -26.722004 15.023500
						CHANNELS 3 Xrotation Yrotation Zrotation
						End Site
						{
							OFFSET 0 0 0
						}
					}
				}
			}
		}
	}
	JOINT Hips_virtual
	{
		OFFSET 0.000000 0.000000 0.000000
		CHANNELS 3 Xrotation Yrotation Zrotation
		JOINT Hips
		{
			OFFSET -0.000000 -0.000000 -0.000000
			CHANNELS 3 Xrotation Yrotation Zrotation
			JOINT Spine
			{
				OFFSET 0.000000 10.199997 -0.299500
				CHANNELS 3 Xrotation Yrotation Zrotation
				JOINT Spine1
				{
					OFFSET 0.000000 11.900002 -1.516600
					CHANNELS 3 Xrotation Yrotation Zrotation
					JOINT Spine2
					{
						OFFSET 0.000000 13.600006 -2.842500
						CHANNELS 3 Xrotation Yrotation Zrotation
						JOINT Neck_virtual
						{
							OFFSET 0.000000 0.000000 0.000000
							CHANNELS 3 Xrotation Yrotation Zrotation
							JOINT Neck
							{
								OFFSET 0.000000 9.624100 -2.890100
								CHANNELS 3 Xrotation Yrotation Zrotation
								JOINT Head
								{
									OFFSET 0.000000 14.068802 -1.351900
									CHANNELS 3 Xrotation Yrotation Zrotation
									End Site
									{
										OFFSET 0 0 0
									}
								}
							}
						}
						JOINT LeftShoulder_virtual
						{
							OFFSET 0.000000 0.000000 0.000000
							CHANNELS 3 Xrotation Yrotation Zrotation
							JOINT LeftShoulder
							{
								OFFSET 15.263000 10.923401 -0.547700
								CHANNELS 3 Xrotation Yrotation Zrotation
								JOINT LeftArm
								{
									OFFSET 25.438599 -2.830597 -13.032500
									CHANNELS 3 Xrotation Yrotation Zrotation
									JOINT LeftForeArm
									{
										OFFSET 29.960503 0.000000 0.000000
										CHANNELS 3 Xrotation Yrotation Zrotation
										JOINT LeftHand
										{
											OFFSET 27.849251 0.000000 0.000000
											CHANNELS 3 Xrotation Yrotation Zrotation
											End Site
											{
												OFFSET 0 0 0
											}
										}
									}
								}
							}
						}
						JOINT RightShoulder_virtual
						{
							OFFSET 0.000000 0.000000 0.000000
							CHANNELS 3 Xrotation Yrotation Zrotation
							JOINT RightShoulder
							{
								OFFSET -15.263000 10.923401 -0.547700
								CHANNELS 3 Xrotation Yrotation Zrotation
								JOINT RightArm
								{
									OFFSET -25.438599 -2.830597 -13.032500
									CHANNELS 3 Xrotation Yrotation Zrotation
									JOINT RightForeArm
									{
										OFFSET -29.960503 0.000000 0.000000
										CHANNELS 3 Xrotation Yrotation Zrotation
										JOINT RightHand
										{
											OFFSET -27.849251 0.000000 0.000000
											CHANNELS 3 Xrotation Yrotation Zrotation
											End Site
											{
												OFFSET 0 0 0
											}
										}
									}
								}
							}
						}
					}
				}
			}
		}
	}
}
MOTION
Frames: 4
Frame Time: 0.03333333
-11.286686 140.521637 25.649443 0.000000 0.000000 0.000000 11.680911 -30.447385 6.662239 -99.006768 2.237227 47.360074 65.629211 -7.665148 -18.995081 21.682627 1.213550 -27.652108 0.000000 0.000000 0.000000 11.417211 -30.744450 6.724014 -109.542027 14.102760 3.586963 134.664215 -0.356943 2.885112 9.903329 7.238943 19.616875 0.000000 0.000000 0.000000 13.269003 -31.797864 7.277253 -0.687743 0.212496 -0.118110 18.736877 -1.427232 -11.673190 8.073298 -2.932871 -8.306121 0.000000 0.000000 0.000000 6.289967 -3.770384 -7.093653 0.720698 -1.623469 1.006911 0.000000 0.000000 0.000000 8.998843 -3.068528 -6.828953 5.615351 -19.701387 51.186944 -86.125571 6.836320 -15.383256 -28.232742 -56.359214 -11.261320 0.000000 0.000000 0.000000 4.144955 -2.712978 -6.682311 4.313488 15.931575 -22.820045 -77.418377 -46.315513 -12.011219 -131.822405 64.162845 120.335775 0.000000 0.000000 0.000000 
-12.129959 138.873444 29.992319 0.000000 0.000000 0.000000 10.140932 -29.005167 6.553877 -97.515396 -0.297178 45.840794 60.749950 -6.494435 -18.285173 22.532406 -3.185092 -27.158634 0.000000 0.000000 0.000000 10.183058 -29.170543 6.174115 -106.350656 12.881460 3.237195 131.804565 -1.622319 4.787623 3.666378 0.902628 16.296826 0.000000 0.000000 0.000000 11.983432 -30.640253 7.228973 -0.642835 0.109965 -0.107694 18.205357 -1.410849 -11.504964 8.540856 -2.702206 -8.377043 0.000000 0.000000 0.000000 6.406902 -3.396985 -7.029588 0.590151 -1.786734 1.239222 0.000000 0.000000 0.000000 9.192973 -2.984195 -6.969554 5.523494 -20.235286 50.433318 -85.335905 4.927530 -17.960582 -28.214292 -57.814608 -11.364476 0.000000 0.000000 0.000000 5.194565 -2.270086 -6.782805 3.853894 16.351379 -22.988047 -75.716205 -50.231998 -8.168498 -137.562359 63.624298 125.491885 0.000000 0.000000 0.000000 
-13.484241 136.157288 36.247036 0.000000 0.000000 0.000000 8.218320 -27.148849 6.393871 -91.834742 -2.637405 42.923446 49.436776 -4.060744 -17.514255 29.642420 -6.799076 -24.178832 0.000000 0.000000 0.000000 8.289065 -26.772979 5.513028 -99.133946 11.140346 0.159821 124.905718 -3.423043 7.008131 1.715149 -3.953768 14.655930 0.000000 0.000000 0.000000 9.509026 -28.934686 7.112819 -0.637635 -0.027548 -0.137146 16.461541 -0.832403 -11.593281 9.276522 -1.838801 -8.437148 0.000000 0.000000 0.000000 6.955708 -2.621491 -6.852316 0.459759 -2.063957 1.692695 0.000000 0.000000 0.000000 9.323575 -2.349540 -7.215445 3.933761 -19.988441 46.962533 -81.799466 1.475630 -21.187138 -29.481388 -58.930647 -12.293209 0.000000 0.000000 0.000000 6.698835 -1.441516 -6.931915 2.728085 16.994156 -23.541833 -71.154657 -56.209677 -1.432489 -145.610057 63.428893 132.526762 0.000000 0.000000 0.000000 
-15.167093 132.320831 43.337006 0.000000 0.000000 0.000000 6.090628 -26.077971 6.148541 -82.776094 -5.616267 37.798291 36.383298 -1.229841 -15.329438 41.104850 -6.994723 -18.085781 0.000000 0.000000 0.000000 6.031137 -25.229479 4.960340 -88.131352 8.632715 -3.892570 113.849090 -5.711541 8.628556 7.224708 -5.905663 15.483870 0.000000 0.000000 0.000000 6.519606 -27.405835 6.914283 -0.689755 -0.048044 -0.175628 13.836131 0.399611 -11.624553 10.076278 -0.455253 -8.527312 0.000000 0.000000 0.000000 7.704126 -1.541804 -6.685539 0.329432 -2.409726 2.216029 0.000000 0.000000 0.000000 9.389242 -1.254576 -7.540953 1.125874 -18.810338 41.151162 -76.216865 -3.498895 -23.684584 -31.503653 -58.831630 -13.587255 0.000000 0.000000 0.000000 8.375746 -0.324212 -7.106087 1.135089 17.955702 -24.117680 -64.507865 -62.517049 6.662969 -155.199452 63.058137 141.141679 0.000000 0.000000 0.000000 
